<svg xmlns="http://www.w3.org/2000/svg" fill="none" viewBox="0 0 176 34"><path fill="#3653E1" d="M27.89 13.4a5.45 5.45 0 0 0-4.21-1.89 6.72 6.72 0 0 0-5.1 2.23 8.24 8.24 0 0 0-2.05 5.49c0 1.07.17 2.05.5 2.93a6.56 6.56 0 0 0 3.62 3.73 7.6 7.6 0 0 0 4.04.43 4.98 4.98 0 0 0 2.14-.88 8.9 8.9 0 0 0 1.06-.87v4.09h-4.67l-3.5 3.98v.69h13.15V11.9h-4.98v1.5Zm-.02 6.84a3.15 3.15 0 0 1-2.95 1.98 3.22 3.22 0 0 1-2.3-.93 3.36 3.36 0 0 1-.66-3.59 3.37 3.37 0 0 1 1.72-1.7 3.1 3.1 0 0 1 2.46-.01 3.2 3.2 0 0 1 1.74 1.71 3.16 3.16 0 0 1 0 2.54ZM14 13.64a5.36 5.36 0 0 0-2.3-1.57 5.68 5.68 0 0 0-.8-.19H7.32l-2.35 2.7v-2.64H0V26.2h4.98v-9.62h5.07v9.61h4.98v-8.9a8.6 8.6 0 0 0-.22-2.04 3.97 3.97 0 0 0-.82-1.6Zm33.53-1.74H42.1l-2.16 2.46V11.9h-4.99v14.25h5V16.6h3.62l3.96-4.51v-.2ZM74 18.48l6.81-6.34v-.24h-6.56l-5.23 5.14V3.1h-4.98v23.04h4.98v-5.8l5.48 5.8h6.7v-.27L74 18.48Zm-13.41-4.96a8.28 8.28 0 0 0-2.7-1.57 9.72 9.72 0 0 0-3.37-.57 9.6 9.6 0 0 0-3.4.58c-.99.36-1.9.9-2.69 1.6a6.98 6.98 0 0 0-2.4 5.35c0 1.16.22 2.22.64 3.17a7.3 7.3 0 0 0 4.4 4.04c1.03.37 2.15.55 3.37.55 1.23 0 2.37-.18 3.42-.55A7.37 7.37 0 0 0 63 19.04a7.23 7.23 0 0 0-2.41-5.5Zm-3.12 6.75c-.16.38-.4.74-.68 1.04a3.05 3.05 0 0 1-2.27.95 3.19 3.19 0 0 1-2.27-.95 3.5 3.5 0 0 1-.69-1.04 3.23 3.23 0 0 1 0-2.57c.18-.38.4-.72.69-1.02a3.17 3.17 0 0 1 3.52-.7 3.1 3.1 0 0 1 1.7 1.74 3.16 3.16 0 0 1 0 2.55Z"/><path fill="#505362" d="M105.5 25.83v-8.38a4.3 4.3 0 0 0-.92-2.91 3.1 3.1 0 0 0-2.47-1.06 3.5 3.5 0 0 0-2.36.84 4.49 4.49 0 0 0-1.36 2.21c.04.26.06.47.06.61v8.69H96.5v-8.38a4.3 4.3 0 0 0-.91-2.91 3.1 3.1 0 0 0-2.47-1.06c-.89 0-1.66.25-2.3.75a3.99 3.99 0 0 0-1.36 1.97v9.63h-1.94V11.96h1.94v1.6c.92-1.25 2.3-1.88 4.13-1.88s3.2.81 4.1 2.44a5.26 5.26 0 0 1 4.7-2.44c1.55 0 2.78.5 3.69 1.47.9.98 1.35 2.31 1.35 4v8.68h-1.94Zm11.39.27a6.7 6.7 0 0 1-5.05-2.08 7.25 7.25 0 0 1-1.97-5.13c0-2.01.66-3.72 1.97-5.1a6.66 6.66 0 0 1 5.05-2.11c2.01 0 3.62.66 4.82 1.97v-1.7h1.95v13.88h-1.95v-1.7a6.22 6.22 0 0 1-4.82 1.97Zm.08-1.8c1.07 0 2.02-.23 2.83-.7a5.2 5.2 0 0 0 1.91-1.82V16a5.2 5.2 0 0 0-1.91-1.83 5.62 5.62 0 0 0-2.83-.7c-1.5 0-2.73.53-3.69 1.58a5.48 5.48 0 0 0-1.41 3.83c0 1.52.47 2.8 1.41 3.86a4.8 4.8 0 0 0 3.7 1.55Zm10.48 1.53V11.96h1.95v1.94c.94-1.48 2.46-2.22 4.55-2.22a5 5 0 0 1 3.74 1.47 5.4 5.4 0 0 1 1.47 4v8.68h-1.94v-8.4c0-1.27-.33-2.24-1-2.92a3.56 3.56 0 0 0-2.72-1.03c-1.05 0-1.93.29-2.63.86a4.57 4.57 0 0 0-1.47 2.25v9.24h-1.95Zm20.59.14c-1.15 0-2.1-.35-2.88-1.03-.76-.69-1.14-1.68-1.14-2.97V13.8h-3.53v-1.83h3.53V8.1h1.94v3.86h4.33v1.83h-4.33v8.01c0 .84.2 1.45.61 1.83.43.4.97.59 1.64.59.74 0 1.42-.18 2.05-.53l.58 1.66a5.9 5.9 0 0 1-2.8.61Zm4.59-.14V5.58h1.94v20.25h-1.94Zm11.74.27a6.83 6.83 0 0 1-5.16-2.05 7.22 7.22 0 0 1-1.97-5.16c0-2.03.67-3.74 2.02-5.13a6.9 6.9 0 0 1 5.16-2.08c1.87 0 3.42.63 4.66 1.89 1.24 1.25 1.86 2.96 1.86 5.13v.52h-11.7a5 5 0 0 0 1.44 3.64 5 5 0 0 0 3.69 1.44 5.2 5.2 0 0 0 2.72-.64 5.64 5.64 0 0 0 1.85-1.97l1.59 1.03c-1.32 2.26-3.37 3.38-6.16 3.38Zm-4.97-8.6h9.52a4.65 4.65 0 0 0-1.53-2.94 4.5 4.5 0 0 0-3.05-1.08c-1.2 0-2.28.37-3.22 1.11a4.6 4.6 0 0 0-1.72 2.91Z"/><path fill="#496EEC" d="M82 0v5h2v24h-2v5h5v-2h84v2h5v-5h-2V5h2V0h-5v2H87V0h-5Zm4 1v3h-3V1h3Zm85 2v2h2v24h-2v2H87v-2h-2V5h2V3h84ZM83 30h3v3h-3v-3Zm92 0v3h-3v-3h3Zm-3-29h3v3h-3V1Z"/></svg>