<svg xmlns="http://www.w3.org/2000/svg" width="176" height="34" fill="none" viewBox="0 0 176 34"><path fill="#699afc" d="M27.888 13.4c-1.136-1.257-2.54-1.89-4.21-1.89q-1.541-.001-2.847.599a7 7 0 0 0-2.258 1.636 7.9 7.9 0 0 0-1.498 2.446q-.55 1.401-.55 3.041 0 1.608.507 2.933a6.6 6.6 0 0 0 1.43 2.26 6.6 6.6 0 0 0 2.19 1.474q1.268.53 2.78.53.685-.001 1.263-.1.568-.095 1.101-.318.523-.225 1.033-.569a9 9 0 0 0 1.059-.874v3.734h-.005v.362h-4.661l-3.505 3.98v.684H32.87V11.902h-4.981zm-.013 6.844c-.167.384-.4.737-.687 1.042a3.15 3.15 0 0 1-2.267.943 3.2 3.2 0 0 1-1.28-.25 3.1 3.1 0 0 1-1.021-.693 3.4 3.4 0 0 1-.674-1.042 3.3 3.3 0 0 1-.248-1.292q-.001-.667.26-1.249a3.2 3.2 0 0 1 .705-1.012c.296-.288.64-.523 1.016-.693a2.9 2.9 0 0 1 1.238-.263q.631-.001 1.225.25a3.1 3.1 0 0 1 1.033.693c.294.297.525.637.704 1.025q.261.582.26 1.28a3.2 3.2 0 0 1-.264 1.261m-13.886-6.611a5.4 5.4 0 0 0-1.802-1.373 4 4 0 0 0-.5-.19 6 6 0 0 0-.806-.185H7.33l-2.347 2.7v-2.644H0v14.246h4.982v-9.612H9.66l.389-.009v9.617h4.981v-8.91q0-1.137-.217-2.029a4 4 0 0 0-.824-1.611m33.531-1.731h-5.434l-2.16 2.455v-2.455H34.94v14.247h4.994l.004-9.536h3.624L47.52 12.1zM74 18.483l6.813-6.34v-.241h-6.566l-5.225 5.138V3.099H64.04v23.045h4.982v-5.8l5.477 5.8h6.703v-.271zm-13.414-4.958q-1.14-1.013-2.698-1.58-1.555-.57-3.372-.569-1.847 0-3.398.582c-.986.36-1.897.9-2.685 1.593a7.3 7.3 0 0 0-1.763 2.39 7 7 0 0 0-.632 2.96q0 1.75.632 3.177a7.3 7.3 0 0 0 1.75 2.455 7.7 7.7 0 0 0 2.655 1.585q1.543.555 3.36.556c1.23 0 2.37-.185 3.428-.556 1.054-.37 1.96-.891 2.71-1.572a7.4 7.4 0 0 0 1.776-2.416q.648-1.4.65-3.096c0-1.129-.214-2.162-.633-3.097a7.2 7.2 0 0 0-1.78-2.412m-3.112 6.745c-.167.384-.4.737-.687 1.042a3.1 3.1 0 0 1-1.016.693q-.593.251-1.25.25a3.2 3.2 0 0 1-1.256-.25 3 3 0 0 1-1.016-.693 3.6 3.6 0 0 1-.687-1.042 3.2 3.2 0 0 1-.26-1.318q-.001-.667.26-1.25c.175-.387.401-.727.687-1.024a3 3 0 0 1 1.016-.694 3.2 3.2 0 0 1 1.255-.25q.66-.001 1.251.25c.384.157.73.394 1.016.694.286.297.512.646.687 1.042q.261.595.26 1.262.001.692-.26 1.288"/><path fill="#3e6ff4" d="M82 0v5h2v24h-2v5h5v-2h84v2h5v-5h-2V5h2V0h-5v2H87V0zm4 1v3h-3V1zm85 2v2h2v24h-2v2H87v-2h-2V5h2V3zM83 30h3v3h-3zm92 0v3h-3v-3zm-3-29h3v3h-3z"/><path fill="#9da1ae" d="M100.567 15.12c.758-1.253 2.45-2.887 4.491-2.887 2.45 0 3.821 1.604 3.821 4.55v8.196h1.838V26h-6.125v-1.02h1.779v-8.05c0-1.605-.846-2.86-2.596-2.86-1.342 0-2.333.643-3.063 1.605v9.304h1.78V26h-6.038v-1.02h1.75v-8.05c0-1.605-.846-2.86-2.566-2.86-1.342 0-2.363.643-3.063 1.605v9.304h1.75V26h-6.096v-1.02h1.838v-9.334c0-.788-.263-1.283-1.634-1.634v-.554l3.413-1.225h.146c.379.7.583 1.925.583 2.8.73-1.225 2.275-2.8 4.317-2.8 1.925 0 3.237 1.021 3.675 2.888m12.293-.787c0-1.137 1.429-2.1 3.85-2.1 3.412 0 5.425 1.313 5.425 4.259v7.058c0 .787.437 1.225 1.021 1.225.437 0 .787-.146 1.166-.583l.409.466c-.613.875-1.488 1.634-2.655 1.634-1.37 0-2.275-.934-2.45-2.305-.904 1.342-2.683 2.276-4.229 2.276-1.983 0-3.296-1.371-3.296-3.092 0-2.596 2.684-4.608 7.525-5.95v-.467c0-2.275-.991-3.529-3.266-3.762-.263 1.283-1.079 2.479-2.246 2.479-.729 0-1.254-.438-1.254-1.138m3.85 10.413c.904 0 2.129-.38 2.916-1.342v-5.308c-3.558 1.05-5.045 2.537-5.045 4.462 0 1.4.875 2.188 2.129 2.188m21.206.233h1.809V26h-6.096v-1.02h1.779v-7.905c0-1.75-.904-3.004-2.683-3.004-1.371 0-2.45.642-3.15 1.604v9.304h1.75V26h-6.096v-1.02h1.837v-9.334c0-.788-.262-1.283-1.633-1.634v-.554l3.412-1.225h.146c.379.7.584 1.925.584 2.8.729-1.225 2.304-2.8 4.404-2.8 2.479 0 3.937 1.604 3.937 4.55zm4.697-16.012 2.304-.817h.204v4.375h3.559v1.02h-3.559v9.51c0 1.137.817 1.72 1.809 1.72.875 0 1.575-.467 2.246-1.196l.554.613c-.934 1.283-2.217 2.1-3.938 2.1-1.691 0-3.179-1.05-3.179-2.975v-9.771h-2.071v-1.021h2.071zm12.023 16.012h1.837V26h-6.154v-1.02h1.808V9.2c0-1.02-.262-1.546-1.691-1.867V6.75l4.025-1.458h.175zm14.786-2.187c-.905 1.925-2.8 3.5-5.396 3.5-3.529 0-5.892-2.975-5.892-6.709 0-4.316 2.917-7.35 5.95-7.35 3.267 0 5.104 2.334 5.104 5.6l-8.75 1.371c.292 3.296 2.246 5.367 4.696 5.367 1.488 0 2.683-.642 3.733-2.158zm-5.367-9.625c-2.246 0-3.646 2.77-3.646 5.104l4.638-.759c1.02-.175 1.487-.466 1.487-1.341 0-1.43-.729-3.004-2.479-3.004"/></svg>
